<svg width="72" height="16" viewBox="0 0 72 16" fill="none" xmlns="http://www.w3.org/2000/svg">
<rect width="72" height="16" fill="#FFCF00"/>
<path d="M10.648 5.344H12.896C13.1093 5.344 13.3253 5.36267 13.544 5.4C13.7627 5.43733 13.96 5.50933 14.136 5.616C14.312 5.71733 14.4533 5.86133 14.56 6.048C14.672 6.22933 14.728 6.46667 14.728 6.76C14.728 7.032 14.672 7.27467 14.56 7.488C14.448 7.70133 14.264 7.86933 14.008 7.992C14.3707 8.07733 14.6267 8.23733 14.776 8.472C14.9307 8.70133 15.008 8.984 15.008 9.32C15.008 9.656 14.936 9.936 14.792 10.16C14.6533 10.384 14.4747 10.5573 14.256 10.68C14.0373 10.8027 13.792 10.888 13.52 10.936C13.2533 10.9787 12.9893 11 12.728 11H10.648V5.344ZM11.576 6.176V7.728H12.632C12.7653 7.728 12.904 7.72 13.048 7.704C13.192 7.68267 13.32 7.64533 13.432 7.592C13.5493 7.53333 13.6453 7.45067 13.72 7.344C13.7947 7.23733 13.832 7.09333 13.832 6.912C13.832 6.74667 13.8027 6.616 13.744 6.52C13.6853 6.41867 13.608 6.344 13.512 6.296C13.416 6.24267 13.304 6.21067 13.176 6.2C13.0533 6.184 12.9253 6.176 12.792 6.176H11.576ZM12.712 10.176C12.8613 10.176 13.016 10.168 13.176 10.152C13.336 10.136 13.4827 10.0987 13.616 10.04C13.7493 9.98133 13.8587 9.896 13.944 9.784C14.0347 9.66667 14.08 9.50933 14.08 9.312C14.08 9.152 14.0453 9.02133 13.976 8.92C13.912 8.81333 13.8267 8.73333 13.72 8.68C13.6133 8.62133 13.4933 8.58133 13.36 8.56C13.232 8.53867 13.1013 8.528 12.968 8.528C12.8507 8.528 12.7333 8.528 12.616 8.528L11.928 8.536C11.8107 8.536 11.6933 8.536 11.576 8.536V10.176H12.712ZM16.2154 5.344H20.1434V6.176H17.1434V7.784H19.7994V8.624H17.1434V10.176H20.1434V11H16.2154V5.344ZM23.3211 6.096C23.1984 6.096 23.0731 6.10667 22.9451 6.128C22.8171 6.14933 22.6997 6.18933 22.5931 6.248C22.4864 6.30133 22.3984 6.37867 22.3291 6.48C22.2597 6.576 22.2251 6.69867 22.2251 6.848C22.2251 7.072 22.2997 7.24267 22.4491 7.36C22.5984 7.472 22.7771 7.55733 22.9851 7.616C23.1344 7.65867 23.2837 7.69867 23.4331 7.736C23.5877 7.77333 23.7291 7.80533 23.8571 7.832C24.0811 7.88 24.2917 7.93867 24.4891 8.008C24.6917 8.07733 24.8677 8.17067 25.0171 8.288C25.1664 8.4 25.2837 8.544 25.3691 8.72C25.4597 8.89067 25.5051 9.104 25.5051 9.36C25.5051 9.664 25.4491 9.92267 25.3371 10.136C25.2304 10.3493 25.0837 10.5253 24.8971 10.664C24.7104 10.8027 24.4917 10.904 24.2411 10.968C23.9904 11.032 23.7211 11.064 23.4331 11.064C23.1397 11.064 22.8597 11.0347 22.5931 10.976C22.3317 10.912 22.0971 10.8133 21.8891 10.68C21.6811 10.5413 21.5077 10.3653 21.3691 10.152C21.2304 9.93867 21.1424 9.68267 21.1051 9.384H22.0651C22.1077 9.544 22.1771 9.67733 22.2731 9.784C22.3691 9.89067 22.4784 9.976 22.6011 10.04C22.7291 10.104 22.8651 10.1493 23.0091 10.176C23.1531 10.2027 23.2944 10.216 23.4331 10.216C23.5824 10.216 23.7264 10.2053 23.8651 10.184C24.0037 10.1573 24.1237 10.1147 24.2251 10.056C24.3264 9.99733 24.4091 9.92 24.4731 9.824C24.5371 9.728 24.5691 9.60267 24.5691 9.448C24.5691 9.23467 24.5131 9.08 24.4011 8.984C24.2891 8.88267 24.1397 8.808 23.9531 8.76C23.6971 8.68533 23.4331 8.62133 23.1611 8.568C22.8944 8.50933 22.6411 8.43467 22.4011 8.344C22.2411 8.28533 22.0944 8.216 21.9611 8.136C21.8277 8.056 21.7104 7.96 21.6091 7.848C21.5077 7.736 21.4277 7.60533 21.3691 7.456C21.3157 7.30133 21.2891 7.12267 21.2891 6.92C21.2891 6.61067 21.3477 6.352 21.4651 6.144C21.5824 5.93067 21.7344 5.76 21.9211 5.632C22.1131 5.504 22.3291 5.41333 22.5691 5.36C22.8091 5.30133 23.0544 5.272 23.3051 5.272C23.5717 5.272 23.8251 5.304 24.0651 5.368C24.3051 5.42667 24.5184 5.52 24.7051 5.648C24.8917 5.776 25.0411 5.94133 25.1531 6.144C25.2704 6.34667 25.3397 6.592 25.3611 6.88H24.4491C24.4277 6.736 24.3824 6.616 24.3131 6.52C24.2491 6.424 24.1664 6.34667 24.0651 6.288C23.9691 6.224 23.8571 6.17867 23.7291 6.152C23.6011 6.12 23.4651 6.10133 23.3211 6.096ZM27.9171 11V6.176H26.1251V5.344H30.6451V6.176H28.8451V11H27.9171ZM33.4711 6.096C33.3484 6.096 33.2231 6.10667 33.0951 6.128C32.9671 6.14933 32.8497 6.18933 32.7431 6.248C32.6364 6.30133 32.5484 6.37867 32.4791 6.48C32.4097 6.576 32.3751 6.69867 32.3751 6.848C32.3751 7.072 32.4497 7.24267 32.5991 7.36C32.7484 7.472 32.9271 7.55733 33.1351 7.616C33.2844 7.65867 33.4337 7.69867 33.5831 7.736C33.7377 7.77333 33.8791 7.80533 34.0071 7.832C34.2311 7.88 34.4417 7.93867 34.6391 8.008C34.8417 8.07733 35.0177 8.17067 35.1671 8.288C35.3164 8.4 35.4337 8.544 35.5191 8.72C35.6097 8.89067 35.6551 9.104 35.6551 9.36C35.6551 9.664 35.5991 9.92267 35.4871 10.136C35.3804 10.3493 35.2337 10.5253 35.0471 10.664C34.8604 10.8027 34.6417 10.904 34.3911 10.968C34.1404 11.032 33.8711 11.064 33.5831 11.064C33.2897 11.064 33.0097 11.0347 32.7431 10.976C32.4817 10.912 32.2471 10.8133 32.0391 10.68C31.8311 10.5413 31.6577 10.3653 31.5191 10.152C31.3804 9.93867 31.2924 9.68267 31.2551 9.384H32.2151C32.2577 9.544 32.3271 9.67733 32.4231 9.784C32.5191 9.89067 32.6284 9.976 32.7511 10.04C32.8791 10.104 33.0151 10.1493 33.1591 10.176C33.3031 10.2027 33.4444 10.216 33.5831 10.216C33.7324 10.216 33.8764 10.2053 34.0151 10.184C34.1537 10.1573 34.2737 10.1147 34.3751 10.056C34.4764 9.99733 34.5591 9.92 34.6231 9.824C34.6871 9.728 34.7191 9.60267 34.7191 9.448C34.7191 9.23467 34.6631 9.08 34.5511 8.984C34.4391 8.88267 34.2897 8.808 34.1031 8.76C33.8471 8.68533 33.5831 8.62133 33.3111 8.568C33.0444 8.50933 32.7911 8.43467 32.5511 8.344C32.3911 8.28533 32.2444 8.216 32.1111 8.136C31.9777 8.056 31.8604 7.96 31.7591 7.848C31.6577 7.736 31.5777 7.60533 31.5191 7.456C31.4657 7.30133 31.4391 7.12267 31.4391 6.92C31.4391 6.61067 31.4977 6.352 31.6151 6.144C31.7324 5.93067 31.8844 5.76 32.0711 5.632C32.2631 5.504 32.4791 5.41333 32.7191 5.36C32.9591 5.30133 33.2044 5.272 33.4551 5.272C33.7217 5.272 33.9751 5.304 34.2151 5.368C34.4551 5.42667 34.6684 5.52 34.8551 5.648C35.0417 5.776 35.1911 5.94133 35.3031 6.144C35.4204 6.34667 35.4897 6.592 35.5111 6.88H34.5991C34.5777 6.736 34.5324 6.616 34.4631 6.52C34.3991 6.424 34.3164 6.34667 34.2151 6.288C34.1191 6.224 34.0071 6.17867 33.8791 6.152C33.7511 6.12 33.6151 6.10133 33.4711 6.096ZM36.9373 5.344H40.8653V6.176H37.8653V7.784H40.5213V8.624H37.8653V10.176H40.8653V11H36.9373V5.344ZM42.0669 5.344H42.9869V10.176H45.9309V11H42.0669V5.344ZM47.0638 5.344H47.9838V10.176H50.9278V11H47.0638V5.344ZM52.0607 5.344H55.9887V6.176H52.9887V7.784H55.6447V8.624H52.9887V10.176H55.9887V11H52.0607V5.344ZM58.1184 8.928V11H57.1904V5.344H59.3904C59.6837 5.344 59.9584 5.37333 60.2144 5.432C60.4704 5.49067 60.6917 5.58933 60.8784 5.728C61.0704 5.86667 61.2197 6.05067 61.3264 6.28C61.4384 6.50933 61.4944 6.792 61.4944 7.128C61.4944 7.35733 61.4597 7.568 61.3904 7.76C61.3264 7.94667 61.2384 8.112 61.1264 8.256C61.0144 8.39467 60.8837 8.512 60.7344 8.608C60.585 8.69867 60.425 8.76533 60.2544 8.808L61.4784 11H60.4464C60.2597 10.6533 60.0704 10.3093 59.8784 9.968C59.6917 9.62133 59.5024 9.27467 59.3104 8.928H58.1184ZM59.2624 8.12C59.4437 8.12 59.6144 8.104 59.7744 8.072C59.9344 8.04 60.073 7.98667 60.1904 7.912C60.3077 7.83733 60.3984 7.736 60.4624 7.608C60.5317 7.47467 60.5664 7.30667 60.5664 7.104C60.5664 6.92267 60.537 6.77333 60.4784 6.656C60.425 6.53867 60.345 6.44533 60.2384 6.376C60.1317 6.30133 60.0037 6.25067 59.8544 6.224C59.705 6.192 59.5397 6.176 59.3584 6.176H58.1184V8.12H59.2624Z" fill="#333333"/>
</svg>
