<svg width="123" height="24" viewBox="0 0 123 24" fill="none" xmlns="http://www.w3.org/2000/svg">
<rect width="123" height="24" fill="#FFCF00"/>
<path d="M17.134 7.102H21.068C21.4413 7.102 21.8193 7.13467 22.202 7.2C22.5847 7.26533 22.93 7.39133 23.238 7.578C23.546 7.75533 23.7933 8.00733 23.98 8.334C24.176 8.65133 24.274 9.06667 24.274 9.58C24.274 10.056 24.176 10.4807 23.98 10.854C23.784 11.2273 23.462 11.5213 23.014 11.736C23.6487 11.8853 24.0967 12.1653 24.358 12.576C24.6287 12.9773 24.764 13.472 24.764 14.06C24.764 14.648 24.638 15.138 24.386 15.53C24.1433 15.922 23.8307 16.2253 23.448 16.44C23.0653 16.6547 22.636 16.804 22.16 16.888C21.6933 16.9627 21.2313 17 20.774 17H17.134V7.102ZM18.758 8.558V11.274H20.606C20.8393 11.274 21.082 11.26 21.334 11.232C21.586 11.1947 21.81 11.1293 22.006 11.036C22.2113 10.9333 22.3793 10.7887 22.51 10.602C22.6407 10.4153 22.706 10.1633 22.706 9.846C22.706 9.55667 22.6547 9.328 22.552 9.16C22.4493 8.98267 22.314 8.852 22.146 8.768C21.978 8.67467 21.782 8.61867 21.558 8.6C21.3433 8.572 21.1193 8.558 20.886 8.558H18.758ZM20.746 15.558C21.0073 15.558 21.278 15.544 21.558 15.516C21.838 15.488 22.0947 15.4227 22.328 15.32C22.5613 15.2173 22.7527 15.068 22.902 14.872C23.0607 14.6667 23.14 14.3913 23.14 14.046C23.14 13.766 23.0793 13.5373 22.958 13.36C22.846 13.1733 22.6967 13.0333 22.51 12.94C22.3233 12.8373 22.1133 12.7673 21.88 12.73C21.656 12.6927 21.4273 12.674 21.194 12.674C20.9887 12.674 20.7833 12.674 20.578 12.674L19.374 12.688C19.1687 12.688 18.9633 12.688 18.758 12.688V15.558H20.746ZM26.8769 7.102H33.7509V8.558H28.5009V11.372H33.1489V12.842H28.5009V15.558H33.7509V17H26.8769V7.102ZM39.3119 8.418C39.0972 8.418 38.8779 8.43667 38.6539 8.474C38.4299 8.51133 38.2245 8.58133 38.0379 8.684C37.8512 8.77733 37.6972 8.91267 37.5759 9.09C37.4545 9.258 37.3939 9.47267 37.3939 9.734C37.3939 10.126 37.5245 10.4247 37.7859 10.63C38.0472 10.826 38.3599 10.9753 38.7239 11.078C38.9852 11.1527 39.2465 11.2227 39.5079 11.288C39.7785 11.3533 40.0259 11.4093 40.2499 11.456C40.6419 11.54 41.0105 11.6427 41.3559 11.764C41.7105 11.8853 42.0185 12.0487 42.2799 12.254C42.5412 12.45 42.7465 12.702 42.8959 13.01C43.0545 13.3087 43.1339 13.682 43.1339 14.13C43.1339 14.662 43.0359 15.1147 42.8399 15.488C42.6532 15.8613 42.3965 16.1693 42.0699 16.412C41.7432 16.6547 41.3605 16.832 40.9219 16.944C40.4832 17.056 40.0119 17.112 39.5079 17.112C38.9945 17.112 38.5045 17.0607 38.0379 16.958C37.5805 16.846 37.1699 16.6733 36.8059 16.44C36.4419 16.1973 36.1385 15.8893 35.8959 15.516C35.6532 15.1427 35.4992 14.6947 35.4339 14.172H37.1139C37.1885 14.452 37.3099 14.6853 37.4779 14.872C37.6459 15.0587 37.8372 15.208 38.0519 15.32C38.2759 15.432 38.5139 15.5113 38.7659 15.558C39.0179 15.6047 39.2652 15.628 39.5079 15.628C39.7692 15.628 40.0212 15.6093 40.2639 15.572C40.5065 15.5253 40.7165 15.4507 40.8939 15.348C41.0712 15.2453 41.2159 15.11 41.3279 14.942C41.4399 14.774 41.4959 14.5547 41.4959 14.284C41.4959 13.9107 41.3979 13.64 41.2019 13.472C41.0059 13.2947 40.7445 13.164 40.4179 13.08C39.9699 12.9493 39.5079 12.8373 39.0319 12.744C38.5652 12.6413 38.1219 12.5107 37.7019 12.352C37.4219 12.2493 37.1652 12.128 36.9319 11.988C36.6985 11.848 36.4932 11.68 36.3159 11.484C36.1385 11.288 35.9985 11.0593 35.8959 10.798C35.8025 10.5273 35.7559 10.2147 35.7559 9.86C35.7559 9.31867 35.8585 8.866 36.0639 8.502C36.2692 8.12867 36.5352 7.83 36.8619 7.606C37.1979 7.382 37.5759 7.22333 37.9959 7.13C38.4159 7.02733 38.8452 6.976 39.2839 6.976C39.7505 6.976 40.1939 7.032 40.6139 7.144C41.0339 7.24667 41.4072 7.41 41.7339 7.634C42.0605 7.858 42.3219 8.14733 42.5179 8.502C42.7232 8.85667 42.8445 9.286 42.8819 9.79H41.2859C41.2485 9.538 41.1692 9.328 41.0479 9.16C40.9359 8.992 40.7912 8.85667 40.6139 8.754C40.4459 8.642 40.2499 8.56267 40.0259 8.516C39.8019 8.46 39.5639 8.42733 39.3119 8.418ZM47.355 17V8.558H44.219V7.102H52.129V8.558H48.979V17H47.355ZM57.0744 8.418C56.8597 8.418 56.6404 8.43667 56.4164 8.474C56.1924 8.51133 55.987 8.58133 55.8004 8.684C55.6137 8.77733 55.4597 8.91267 55.3384 9.09C55.217 9.258 55.1564 9.47267 55.1564 9.734C55.1564 10.126 55.287 10.4247 55.5484 10.63C55.8097 10.826 56.1224 10.9753 56.4864 11.078C56.7477 11.1527 57.009 11.2227 57.2704 11.288C57.541 11.3533 57.7884 11.4093 58.0124 11.456C58.4044 11.54 58.773 11.6427 59.1184 11.764C59.473 11.8853 59.781 12.0487 60.0424 12.254C60.3037 12.45 60.509 12.702 60.6584 13.01C60.817 13.3087 60.8964 13.682 60.8964 14.13C60.8964 14.662 60.7984 15.1147 60.6024 15.488C60.4157 15.8613 60.159 16.1693 59.8324 16.412C59.5057 16.6547 59.123 16.832 58.6844 16.944C58.2457 17.056 57.7744 17.112 57.2704 17.112C56.757 17.112 56.267 17.0607 55.8004 16.958C55.343 16.846 54.9324 16.6733 54.5684 16.44C54.2044 16.1973 53.901 15.8893 53.6584 15.516C53.4157 15.1427 53.2617 14.6947 53.1964 14.172H54.8764C54.951 14.452 55.0724 14.6853 55.2404 14.872C55.4084 15.0587 55.5997 15.208 55.8144 15.32C56.0384 15.432 56.2764 15.5113 56.5284 15.558C56.7804 15.6047 57.0277 15.628 57.2704 15.628C57.5317 15.628 57.7837 15.6093 58.0264 15.572C58.269 15.5253 58.479 15.4507 58.6564 15.348C58.8337 15.2453 58.9784 15.11 59.0904 14.942C59.2024 14.774 59.2584 14.5547 59.2584 14.284C59.2584 13.9107 59.1604 13.64 58.9644 13.472C58.7684 13.2947 58.507 13.164 58.1804 13.08C57.7324 12.9493 57.2704 12.8373 56.7944 12.744C56.3277 12.6413 55.8844 12.5107 55.4644 12.352C55.1844 12.2493 54.9277 12.128 54.6944 11.988C54.461 11.848 54.2557 11.68 54.0784 11.484C53.901 11.288 53.761 11.0593 53.6584 10.798C53.565 10.5273 53.5184 10.2147 53.5184 9.86C53.5184 9.31867 53.621 8.866 53.8264 8.502C54.0317 8.12867 54.2977 7.83 54.6244 7.606C54.9604 7.382 55.3384 7.22333 55.7584 7.13C56.1784 7.02733 56.6077 6.976 57.0464 6.976C57.513 6.976 57.9564 7.032 58.3764 7.144C58.7964 7.24667 59.1697 7.41 59.4964 7.634C59.823 7.858 60.0844 8.14733 60.2804 8.502C60.4857 8.85667 60.607 9.286 60.6444 9.79H59.0484C59.011 9.538 58.9317 9.328 58.8104 9.16C58.6984 8.992 58.5537 8.85667 58.3764 8.754C58.2084 8.642 58.0124 8.56267 57.7884 8.516C57.5644 8.46 57.3264 8.42733 57.0744 8.418ZM63.1402 7.102H70.0142V8.558H64.7642V11.372H69.4122V12.842H64.7642V15.558H70.0142V17H63.1402V7.102ZM72.1171 7.102H73.7271V15.558H78.8791V17H72.1171V7.102ZM80.8617 7.102H82.4717V15.558H87.6237V17H80.8617V7.102ZM89.6062 7.102H96.4802V8.558H91.2302V11.372H95.8782V12.842H91.2302V15.558H96.4802V17H89.6062V7.102ZM100.207 13.374V17H98.5832V7.102H102.433C102.946 7.102 103.427 7.15333 103.875 7.256C104.323 7.35867 104.71 7.53133 105.037 7.774C105.373 8.01667 105.634 8.33867 105.821 8.74C106.017 9.14133 106.115 9.636 106.115 10.224C106.115 10.6253 106.054 10.994 105.933 11.33C105.821 11.6567 105.667 11.946 105.471 12.198C105.275 12.4407 105.046 12.646 104.785 12.814C104.524 12.9727 104.244 13.0893 103.945 13.164L106.087 17H104.281C103.954 16.3933 103.623 15.7913 103.287 15.194C102.96 14.5873 102.629 13.9807 102.293 13.374H100.207ZM102.209 11.96C102.526 11.96 102.825 11.932 103.105 11.876C103.385 11.82 103.628 11.7267 103.833 11.596C104.038 11.4653 104.197 11.288 104.309 11.064C104.43 10.8307 104.491 10.5367 104.491 10.182C104.491 9.86467 104.44 9.60333 104.337 9.398C104.244 9.19267 104.104 9.02933 103.917 8.908C103.73 8.77733 103.506 8.68867 103.245 8.642C102.984 8.586 102.694 8.558 102.377 8.558H100.207V11.96H102.209Z" fill="#333333"/>
</svg>
