<svg width="32" height="32" viewBox="0 0 32 32" fill="none" xmlns="http://www.w3.org/2000/svg">
<path fill-rule="evenodd" clip-rule="evenodd" d="M5.02628 6.01146C4.88196 6.00065 4.6885 6 4.3578 6H4C3.44772 6 3 5.55229 3 5C3 4.44772 3.44772 4 4 4H4.3578C4.36811 4 4.3784 4 4.38866 4C4.67797 3.99998 4.94749 3.99996 5.17561 4.01704C5.42426 4.03566 5.69384 4.07814 5.96809 4.19945C6.36589 4.37541 6.70595 4.65877 6.95088 5.01754C7.11976 5.2649 7.21038 5.52184 7.27375 5.76257C7.33185 5.98331 7.38063 6.24765 7.43295 6.53115C7.43481 6.54124 7.43667 6.55135 7.43855 6.56149L7.70412 8L25.3582 8C25.782 7.99997 26.163 7.99995 26.4757 8.02752C26.8063 8.05668 27.1742 8.12365 27.521 8.33115C28.0036 8.61998 28.3699 9.07503 28.5446 9.61576C28.6688 10.0005 28.6511 10.3746 28.6051 10.703C28.5616 11.014 28.4759 11.3852 28.3807 11.7976L28.3722 11.8345L28.3718 11.8362L28.3714 11.8381L26.2761 20.9178L26.2713 20.9382C26.2093 21.2069 26.1514 21.4582 26.0865 21.6681C26.0155 21.8976 25.9182 22.1411 25.7481 22.3744C25.5017 22.7123 25.1682 22.9804 24.7791 23.1464C24.5131 23.2598 24.2534 23.2998 24.0135 23.3173C23.794 23.3334 23.5354 23.3334 23.2589 23.3333L9.33339 23.3334C8.85112 23.3334 8.43756 22.9892 8.35 22.5149L5.47178 6.92458C5.41193 6.60038 5.37632 6.41106 5.33963 6.27169C5.31727 6.18674 5.30212 6.15214 5.29759 6.143C5.26305 6.09328 5.21613 6.05429 5.16145 6.02958C5.15165 6.02677 5.11466 6.01807 5.02628 6.01146ZM5.16426 6.0305L5.16145 6.02958ZM8.07335 10L10.1657 21.3334L23.2291 21.3333C23.5456 21.3333 23.73 21.3327 23.8677 21.3227C23.9518 21.3165 23.9871 21.3084 23.9965 21.3058C24.048 21.2834 24.0946 21.2469 24.1307 21.198C24.1354 21.1894 24.151 21.1571 24.1757 21.0772C24.2163 20.9459 24.2582 20.7671 24.3293 20.4593L24.3323 20.4463L26.4222 11.3901L26.423 11.3865C26.53 10.9232 26.5946 10.639 26.6244 10.4259C26.6426 10.2958 26.6401 10.2384 26.6387 10.2225C26.6145 10.1541 26.5666 10.0931 26.501 10.0517C26.486 10.0467 26.4307 10.0313 26.3 10.0198C26.0859 10.0009 25.7946 10 25.3183 10H8.07335ZM26.5055 10.0533L26.5044 10.0529ZM23.9992 21.305L23.9965 21.3058ZM8.33333 27.6667C8.33333 26.378 9.378 25.3333 10.6667 25.3333C11.9553 25.3333 13 26.378 13 27.6667C13 28.9553 11.9553 30 10.6667 30C9.378 30 8.33333 28.9553 8.33333 27.6667ZM21.6667 27.6667C21.6667 26.378 22.7113 25.3333 24 25.3333C25.2887 25.3333 26.3333 26.378 26.3333 27.6667C26.3333 28.9553 25.2887 30 24 30C22.7113 30 21.6667 28.9553 21.6667 27.6667Z" fill="#333333"/>
</svg>
