<svg width="24" height="24" viewBox="0 0 24 24" fill="none" xmlns="http://www.w3.org/2000/svg">
<path d="M13.5 11.0556V16.1111M10.5 11.0556V16.1111M7.5 8.16667V16.6889C7.5 17.4979 7.5 17.9021 7.66349 18.211C7.8073 18.4828 8.0366 18.7042 8.31885 18.8427C8.6394 19 9.05925 19 9.89768 19H14.1023C14.9408 19 15.36 19 15.6805 18.8427C15.9628 18.7042 16.1929 18.4828 16.3367 18.211C16.5 17.9024 16.5 17.4985 16.5 16.6911V8.16667M7.5 8.16667H9M7.5 8.16667H6M9 8.16667H15M9 8.16667C9 7.49364 9 7.15729 9.11418 6.89185C9.26642 6.53792 9.55824 6.25655 9.92578 6.10995C10.2014 6 10.5511 6 11.25 6H12.75C13.4489 6 13.7984 6 14.074 6.10995C14.4416 6.25655 14.7335 6.53792 14.8857 6.89185C14.9999 7.15729 15 7.49364 15 8.16667M15 8.16667H16.5M16.5 8.16667H18" stroke="#333333" stroke-linecap="round" stroke-linejoin="round"/>
</svg>
