<svg width="208" height="56" viewBox="0 0 208 56" fill="none" xmlns="http://www.w3.org/2000/svg">
<path fill-rule="evenodd" clip-rule="evenodd" d="M116.413 0.432C118.397 0.432 120.205 0.639999 121.837 1.056C123.501 1.472 124.925 2.144 126.109 3.072C127.293 4 128.205 5.216 128.845 6.72C129.517 8.224 129.853 10.064 129.853 12.24C129.853 14.32 129.517 16.128 128.845 17.664C128.173 19.2 127.229 20.496 126.013 21.552C124.829 22.576 123.421 23.344 121.789 23.856C120.157 24.368 118.397 24.624 116.509 24.624H110.605V34.416H102.781V0.432H116.413ZM120.493 16.416C119.437 17.28 118.045 17.712 116.317 17.712H110.605V7.584H116.269C118.221 7.584 119.693 7.984 120.685 8.784C121.677 9.552 122.173 10.848 122.173 12.672C122.109 14.304 121.549 15.552 120.493 16.416Z" fill="#FF0000"/>
<path fill-rule="evenodd" clip-rule="evenodd" d="M149.188 0.432C150.756 0.432 152.34 0.575999 153.94 0.863997C155.54 1.152 156.98 1.696 158.26 2.496C159.54 3.296 160.58 4.416 161.38 5.856C162.18 7.264 162.58 9.088 162.58 11.328C162.516 13.824 161.909 15.984 160.757 17.808C159.604 19.632 157.893 20.896 155.62 21.6L163.3 34.416H154.468L147.796 22.608H142.949V34.416H135.124V0.432H149.188ZM153.22 14.88C152.196 15.52 150.837 15.84 149.141 15.84H142.949V7.584H149.285C150.085 7.584 150.82 7.648 151.492 7.776C152.196 7.872 152.788 8.08 153.268 8.4C153.78 8.688 154.18 9.104 154.468 9.648C154.756 10.16 154.884 10.816 154.852 11.616C154.788 13.152 154.244 14.24 153.22 14.88Z" fill="#FF0000"/>
<path fill-rule="evenodd" clip-rule="evenodd" d="M184.045 0C186.637 0 188.973 0.415999 191.053 1.248C193.165 2.048 194.957 3.216 196.429 4.752C197.933 6.256 199.085 8.064 199.885 10.176C200.685 12.288 201.085 14.64 201.085 17.232C201.085 19.792 200.685 22.144 199.885 24.288C199.085 26.432 197.933 28.288 196.429 29.856C194.957 31.424 193.165 32.64 191.053 33.504C188.941 34.368 186.573 34.784 183.949 34.752C181.293 34.752 178.909 34.336 176.797 33.504C174.717 32.64 172.941 31.44 171.469 29.904C169.997 28.368 168.861 26.544 168.061 24.432C167.293 22.288 166.909 19.936 166.909 17.376C166.909 14.784 167.309 12.432 168.109 10.32C168.941 8.176 170.093 6.336 171.565 4.8C173.069 3.264 174.877 2.08 176.989 1.248C179.101 0.415999 181.453 0 184.045 0ZM175.453 21.12C175.101 19.904 174.925 18.64 174.925 17.328C174.925 16.048 175.101 14.8 175.453 13.584C175.837 12.368 176.397 11.296 177.133 10.368C177.869 9.408 178.813 8.64 179.965 8.064C181.117 7.488 182.477 7.2 184.045 7.2C185.645 7.2 187.005 7.504 188.125 8.112C189.277 8.72 190.221 9.504 190.957 10.464C191.693 11.424 192.221 12.512 192.541 13.728C192.893 14.944 193.069 16.176 193.069 17.424C193.069 18.672 192.893 19.904 192.541 21.12C192.189 22.336 191.645 23.424 190.909 24.384C190.173 25.344 189.245 26.112 188.125 26.688C187.005 27.264 185.677 27.552 184.141 27.552C182.541 27.52 181.165 27.216 180.013 26.64C178.861 26.064 177.901 25.312 177.133 24.384C176.397 23.424 175.837 22.336 175.453 21.12Z" fill="#FF0000"/>
<path d="M0 7.584V0.432H28.56V7.584H18.192V34.416H10.368V21V7.584H0Z" fill="#333333"/>
<path fill-rule="evenodd" clip-rule="evenodd" d="M47.6385 0C50.2305 0 52.5665 0.415999 54.6465 1.248C56.7585 2.048 58.5505 3.216 60.0225 4.752C61.5265 6.256 62.6785 8.064 63.4785 10.176C64.2785 12.288 64.6785 14.64 64.6785 17.232C64.6785 19.792 64.2785 22.144 63.4785 24.288C62.6785 26.432 61.5265 28.288 60.0225 29.856C58.5505 31.424 56.7585 32.64 54.6465 33.504C52.5345 34.368 50.1665 34.784 47.5425 34.752C44.8865 34.752 42.5025 34.336 40.3905 33.504C38.3105 32.64 36.5345 31.44 35.0625 29.904C33.5905 28.368 32.4545 26.544 31.6545 24.432C30.8865 22.288 30.5025 19.936 30.5025 17.376C30.5025 14.784 30.9025 12.432 31.7025 10.32C32.5345 8.176 33.6865 6.336 35.1585 4.8C36.6625 3.264 38.4705 2.08 40.5825 1.248C42.6945 0.415999 45.0465 0 47.6385 0ZM39.0465 21.12C38.6945 19.904 38.5185 18.64 38.5185 17.328C38.5185 16.048 38.6945 14.8 39.0465 13.584C39.4305 12.368 39.9905 11.296 40.7265 10.368C41.4625 9.408 42.4065 8.64 43.5585 8.064C44.7105 7.488 46.0705 7.2 47.6385 7.2C49.2385 7.2 50.5985 7.504 51.7185 8.112C52.8705 8.72 53.8145 9.504 54.5505 10.464C55.2865 11.424 55.8145 12.512 56.1345 13.728C56.4865 14.944 56.6625 16.176 56.6625 17.424C56.6625 18.672 56.4865 19.904 56.1345 21.12C55.7825 22.336 55.2385 23.424 54.5025 24.384C53.7665 25.344 52.8385 26.112 51.7185 26.688C50.5985 27.264 49.2705 27.552 47.7345 27.552C46.1345 27.52 44.7585 27.216 43.6065 26.64C42.4545 26.064 41.4945 25.312 40.7265 24.384C39.9905 23.424 39.4305 22.336 39.0465 21.12Z" fill="#333333"/>
<path d="M82.4719 14.544C83.7839 12.176 85.0799 9.824 86.3599 7.488C87.6719 5.152 88.9999 2.8 90.3439 0.432H99.1759L86.3119 21.744V34.416H78.4879V21.792L65.4799 0.432H74.5039L82.4719 14.544Z" fill="#333333"/>
<path d="M0 51.4977V40.1697H4.176C4.72 40.1697 5.25333 40.2177 5.776 40.3137C6.29867 40.399 6.8 40.5697 7.28 40.8257C8.13333 41.263 8.77333 41.9083 9.2 42.7617C9.63733 43.615 9.856 44.6443 9.856 45.8497C9.856 47.6737 9.38133 49.071 8.432 50.0417C7.49333 51.0123 6.112 51.4977 4.288 51.4977H0ZM4.304 49.4497C4.45333 49.4497 4.61333 49.439 4.784 49.4177C4.95467 49.3963 5.12533 49.3697 5.296 49.3377C5.46667 49.295 5.62667 49.247 5.776 49.1937C5.92533 49.1403 6.05333 49.0817 6.16 49.0177C6.59733 48.719 6.92267 48.2977 7.136 47.7537C7.36 47.199 7.472 46.5643 7.472 45.8497C7.472 45.2843 7.408 44.7723 7.28 44.3137C7.152 43.855 6.95467 43.4657 6.688 43.1457C6.38933 42.7937 6.00533 42.5537 5.536 42.4257C5.07733 42.2977 4.624 42.2337 4.176 42.2337H2.32V49.4497H4.304Z" fill="#333333"/>
<path d="M13.9606 51.4977H11.6406V40.1697H13.9606V51.4977Z" fill="#333333"/>
<path d="M22.2794 43.4337C22.2154 42.9537 22.002 42.6123 21.6394 42.4097C21.2767 42.1963 20.8234 42.079 20.2794 42.0577C20.0874 42.0577 19.8847 42.0737 19.6714 42.1057C19.4687 42.1377 19.2767 42.2017 19.0954 42.2977C18.914 42.3937 18.7647 42.5217 18.6474 42.6817C18.53 42.8417 18.4714 43.039 18.4714 43.2737C18.4607 43.519 18.5194 43.727 18.6474 43.8977C18.786 44.0683 18.9674 44.207 19.1914 44.3137C19.3514 44.3883 19.522 44.4577 19.7034 44.5217C19.8954 44.575 20.082 44.6283 20.2634 44.6817C20.4447 44.7243 20.6207 44.7617 20.7914 44.7937C20.962 44.8257 21.1114 44.8577 21.2394 44.8897C21.698 44.9857 22.1407 45.0977 22.5674 45.2257C22.994 45.3537 23.3727 45.5297 23.7034 45.7537C24.034 45.9777 24.3007 46.2763 24.5034 46.6497C24.706 47.023 24.8127 47.5083 24.8234 48.1057C24.8234 48.7563 24.7007 49.311 24.4554 49.7697C24.21 50.2283 23.8794 50.5963 23.4634 50.8737C23.0687 51.151 22.61 51.3537 22.0874 51.4817C21.5647 51.599 20.9887 51.647 20.3594 51.6257C19.7514 51.615 19.1807 51.535 18.6474 51.3857C18.114 51.2257 17.6394 50.9963 17.2234 50.6977C16.818 50.399 16.4927 50.0257 16.2474 49.5777C16.002 49.1297 15.8634 48.6017 15.8314 47.9937H18.1994C18.2634 48.271 18.37 48.5003 18.5194 48.6817C18.6687 48.863 18.8447 49.0123 19.0474 49.1297C19.25 49.247 19.474 49.3323 19.7194 49.3857C19.9754 49.439 20.2314 49.471 20.4874 49.4817C20.754 49.4923 21.01 49.4817 21.2554 49.4497C21.5007 49.4177 21.714 49.359 21.8954 49.2737C22.0874 49.1777 22.2367 49.0497 22.3434 48.8897C22.45 48.7297 22.5034 48.527 22.5034 48.2817C22.5034 47.9403 22.3967 47.6897 22.1834 47.5297C21.9807 47.3697 21.7567 47.2577 21.5114 47.1937C21.3407 47.151 21.186 47.1137 21.0474 47.0817C20.9194 47.039 20.7914 47.007 20.6634 46.9857C20.5354 46.9537 20.402 46.9217 20.2634 46.8897C20.1247 46.8577 19.9647 46.8203 19.7834 46.7777C19.378 46.671 18.9567 46.5537 18.5194 46.4257C18.0927 46.287 17.7087 46.095 17.3674 45.8497C16.9514 45.5617 16.6367 45.1937 16.4234 44.7457C16.2207 44.2977 16.13 43.8017 16.1514 43.2577C16.1834 42.6177 16.3327 42.0897 16.5994 41.6737C16.866 41.247 17.2074 40.911 17.6234 40.6657C18.0394 40.4203 18.498 40.2497 18.9994 40.1537C19.5007 40.0577 20.002 40.015 20.5034 40.0257C21.058 40.0363 21.57 40.1163 22.0394 40.2657C22.5194 40.4043 22.9354 40.6123 23.2874 40.8897C23.65 41.167 23.9434 41.519 24.1674 41.9457C24.3914 42.3723 24.53 42.8683 24.5834 43.4337H22.2794Z" fill="#333333"/>
<path d="M28.6194 45.8017C28.6194 46.2817 28.678 46.7457 28.7954 47.1937C28.9234 47.6417 29.11 48.0363 29.3554 48.3777C29.6114 48.719 29.9314 48.9963 30.3154 49.2097C30.71 49.4123 31.1794 49.5137 31.7234 49.5137C32.406 49.5137 32.966 49.3643 33.4034 49.0657C33.8514 48.7563 34.1287 48.3297 34.2354 47.7857H36.4754C36.422 48.415 36.2567 48.9697 35.9794 49.4497C35.702 49.919 35.3447 50.3137 34.9074 50.6337C34.47 50.9537 33.974 51.1937 33.4194 51.3537C32.8647 51.5137 32.2887 51.5937 31.6914 51.5937C30.806 51.5937 30.022 51.4497 29.3394 51.1617C28.6674 50.8737 28.0967 50.4737 27.6274 49.9617C27.1687 49.4497 26.822 48.8417 26.5874 48.1377C26.3527 47.4337 26.2354 46.6603 26.2354 45.8177C26.2354 44.9963 26.3527 44.2337 26.5874 43.5297C26.8327 42.815 27.19 42.2017 27.6594 41.6897C28.1287 41.167 28.6994 40.7617 29.3714 40.4737C30.054 40.175 30.838 40.0257 31.7234 40.0257C32.342 40.0257 32.9234 40.1003 33.4674 40.2497C34.0114 40.399 34.4967 40.6283 34.9234 40.9377C35.35 41.247 35.6967 41.647 35.9634 42.1377C36.2407 42.6177 36.4114 43.1937 36.4754 43.8657H34.2354C34.118 43.3217 33.8407 42.8897 33.4034 42.5697C32.966 42.2497 32.406 42.0897 31.7234 42.0897C31.1794 42.0897 30.71 42.191 30.3154 42.3937C29.9314 42.5857 29.6114 42.8523 29.3554 43.1937C29.11 43.535 28.9234 43.935 28.7954 44.3937C28.678 44.8417 28.6194 45.311 28.6194 45.8017Z" fill="#333333"/>
<path d="M43.3045 40.0257C44.1685 40.0257 44.9472 40.1643 45.6405 40.4417C46.3338 40.719 46.9205 41.1137 47.4005 41.6257C47.8805 42.127 48.2485 42.7297 48.5045 43.4337C48.7605 44.1377 48.8885 44.9163 48.8885 45.7697C48.8885 46.6017 48.7605 47.375 48.5045 48.0897C48.2485 48.8043 47.8805 49.423 47.4005 49.9457C46.9205 50.4683 46.3285 50.879 45.6245 51.1777C44.9312 51.4657 44.1418 51.6043 43.2565 51.5937C42.3712 51.5937 41.5818 51.4497 40.8885 51.1617C40.2058 50.863 39.6245 50.4577 39.1445 49.9457C38.6752 49.4337 38.3125 48.8257 38.0565 48.1217C37.8112 47.4177 37.6885 46.6497 37.6885 45.8177C37.6885 44.9643 37.8165 44.1857 38.0725 43.4817C38.3392 42.767 38.7125 42.1537 39.1925 41.6417C39.6832 41.1297 40.2752 40.735 40.9685 40.4577C41.6618 40.1697 42.4405 40.0257 43.3045 40.0257ZM40.0725 45.7857C40.0725 46.2763 40.1365 46.7457 40.2645 47.1937C40.4032 47.631 40.6005 48.0203 40.8565 48.3617C41.1232 48.703 41.4592 48.9803 41.8645 49.1937C42.2698 49.3963 42.7445 49.503 43.2885 49.5137C43.8112 49.5243 44.2752 49.4337 44.6805 49.2417C45.0858 49.039 45.4218 48.767 45.6885 48.4257C45.9552 48.0737 46.1578 47.6737 46.2965 47.2257C46.4352 46.767 46.5045 46.2923 46.5045 45.8017C46.5045 45.3217 46.4352 44.8577 46.2965 44.4097C46.1685 43.9617 45.9712 43.567 45.7045 43.2257C45.4485 42.8737 45.1178 42.5963 44.7125 42.3937C44.3072 42.191 43.8325 42.0897 43.2885 42.0897C42.7552 42.0897 42.2858 42.191 41.8805 42.3937C41.4752 42.5963 41.1392 42.8683 40.8725 43.2097C40.6058 43.551 40.4032 43.9457 40.2645 44.3937C40.1365 44.831 40.0725 45.295 40.0725 45.7857Z" fill="#333333"/>
<path d="M57.6896 40.1697H60.2016L55.8976 51.4977H53.4016L49.0976 40.1697H51.6736L54.6976 48.7297L57.6896 40.1697Z" fill="#333333"/>
<path d="M69.5335 40.1697V42.2337H63.7575V44.8737H68.7975V46.9377H63.7575V49.4497H69.5335V51.4977H61.4375V40.1697H69.5335Z" fill="#333333"/>
<path d="M75.8245 40.1697C76.1232 40.1697 76.4218 40.1803 76.7205 40.2017C77.0192 40.2123 77.3125 40.2497 77.6005 40.3137C77.8885 40.3777 78.1658 40.4737 78.4325 40.6017C78.7098 40.719 78.9658 40.8843 79.2005 41.0977C79.5738 41.439 79.8405 41.8497 80.0005 42.3297C80.1605 42.799 80.2352 43.279 80.2245 43.7697C80.2138 44.431 80.0965 44.991 79.8725 45.4497C79.6592 45.9083 79.3658 46.2977 78.9925 46.6177C78.6512 46.895 78.2565 47.0923 77.8085 47.2097L80.3205 51.4977H77.7285L75.4405 47.4337H73.6325V51.4977H71.3125V40.1697H75.8245ZM75.8405 45.4817C76.1285 45.4817 76.4005 45.455 76.6565 45.4017C76.9125 45.3483 77.1312 45.263 77.3125 45.1457C77.5045 45.0177 77.6538 44.8523 77.7605 44.6497C77.8778 44.4363 77.9418 44.1697 77.9525 43.8497C77.9632 43.5083 77.9152 43.231 77.8085 43.0177C77.7018 42.8043 77.5525 42.639 77.3605 42.5217C77.1792 42.4043 76.9605 42.3297 76.7045 42.2977C76.4592 42.255 76.1872 42.2337 75.8885 42.2337H73.6325V45.4817H75.8405Z" fill="#333333"/>
<path d="M89.0764 49.1457H94.5644V51.4977H86.4684V40.1697H89.0764V49.1457Z" fill="#333333"/>
<path d="M104.507 40.1697V42.5537H98.7951V44.7297H103.643V47.0497H98.7951V49.1457H104.507V51.4977H96.1871V40.1697H104.507Z" fill="#333333"/>
<path d="M108.314 45.8177C108.314 46.255 108.367 46.6817 108.474 47.0977C108.58 47.503 108.751 47.8657 108.986 48.1857C109.231 48.495 109.54 48.7457 109.914 48.9377C110.298 49.119 110.756 49.2097 111.29 49.2097C111.578 49.2097 111.855 49.1777 112.122 49.1137C112.399 49.0497 112.644 48.9483 112.858 48.8097C113.082 48.671 113.263 48.495 113.402 48.2817C113.551 48.0577 113.647 47.7963 113.69 47.4977H110.922V45.3377H116.346C116.346 45.7643 116.33 46.1857 116.298 46.6017C116.276 47.0177 116.223 47.423 116.138 47.8177C116.063 48.2017 115.946 48.575 115.786 48.9377C115.626 49.3003 115.412 49.6417 115.146 49.9617C114.708 50.4843 114.154 50.8897 113.482 51.1777C112.81 51.4657 112.058 51.6097 111.226 51.6097C110.34 51.6097 109.551 51.471 108.858 51.1937C108.164 50.9163 107.578 50.527 107.098 50.0257C106.618 49.5137 106.25 48.9057 105.994 48.2017C105.748 47.487 105.626 46.6977 105.626 45.8337C105.626 44.9483 105.748 44.1483 105.994 43.4337C106.25 42.719 106.618 42.111 107.098 41.6097C107.578 41.0977 108.164 40.7083 108.858 40.4417C109.551 40.1643 110.34 40.0257 111.226 40.0257C111.844 40.0257 112.431 40.111 112.986 40.2817C113.551 40.4417 114.052 40.687 114.49 41.0177C114.938 41.3483 115.306 41.7643 115.594 42.2657C115.882 42.767 116.063 43.3537 116.138 44.0257H113.578C113.471 43.503 113.21 43.1083 112.794 42.8417C112.378 42.5643 111.86 42.4257 111.242 42.4257C110.708 42.4257 110.255 42.527 109.882 42.7297C109.508 42.9217 109.204 43.1777 108.97 43.4977C108.746 43.8177 108.58 44.1803 108.474 44.5857C108.367 44.991 108.314 45.4017 108.314 45.8177Z" fill="#333333"/>
<path d="M123.338 40.0257C124.202 40.0257 124.98 40.1643 125.674 40.4417C126.378 40.7083 126.975 41.0977 127.466 41.6097C127.967 42.111 128.351 42.7137 128.618 43.4177C128.884 44.1217 129.018 44.9057 129.018 45.7697C129.018 46.623 128.884 47.407 128.618 48.1217C128.351 48.8363 127.967 49.455 127.466 49.9777C126.975 50.5003 126.378 50.9057 125.674 51.1937C124.97 51.4817 124.18 51.6203 123.306 51.6097C122.42 51.6097 121.626 51.471 120.922 51.1937C120.228 50.9057 119.636 50.5057 119.146 49.9937C118.655 49.4817 118.276 48.8737 118.01 48.1697C117.754 47.455 117.626 46.671 117.626 45.8177C117.626 44.9537 117.759 44.1697 118.026 43.4657C118.303 42.751 118.687 42.1377 119.178 41.6257C119.679 41.1137 120.282 40.719 120.986 40.4417C121.69 40.1643 122.474 40.0257 123.338 40.0257ZM120.298 45.8017C120.298 46.239 120.356 46.6603 120.474 47.0657C120.602 47.471 120.788 47.8337 121.034 48.1537C121.29 48.463 121.61 48.7137 121.994 48.9057C122.378 49.0977 122.836 49.199 123.37 49.2097C123.882 49.2097 124.324 49.1137 124.698 48.9217C125.071 48.7297 125.38 48.4737 125.626 48.1537C125.871 47.8337 126.052 47.471 126.17 47.0657C126.287 46.6603 126.346 46.2497 126.346 45.8337C126.346 45.4177 126.287 45.007 126.17 44.6017C126.063 44.1963 125.887 43.8337 125.642 43.5137C125.396 43.1937 125.082 42.9323 124.698 42.7297C124.324 42.527 123.871 42.4257 123.338 42.4257C122.815 42.4257 122.362 42.5217 121.978 42.7137C121.594 42.9057 121.279 43.1617 121.034 43.4817C120.788 43.791 120.602 44.1483 120.474 44.5537C120.356 44.959 120.298 45.375 120.298 45.8017Z" fill="#333333"/>
<path d="M133.485 39.7537C133.965 39.7537 134.403 39.8283 134.797 39.9777C135.192 40.1163 135.533 40.3243 135.821 40.6017C136.109 40.8683 136.333 41.2043 136.493 41.6097C136.653 42.0043 136.733 42.4523 136.733 42.9537C136.733 43.455 136.653 43.903 136.493 44.2977C136.333 44.6817 136.109 45.007 135.821 45.2737C135.533 45.5403 135.187 45.743 134.781 45.8817C134.387 46.0203 133.955 46.0897 133.485 46.0897C133.005 46.0897 132.563 46.0203 132.157 45.8817C131.763 45.743 131.416 45.5457 131.117 45.2897C130.829 45.023 130.605 44.6977 130.445 44.3137C130.285 43.919 130.205 43.4657 130.205 42.9537C130.205 42.4417 130.285 41.9883 130.445 41.5937C130.616 41.199 130.845 40.8683 131.133 40.6017C131.432 40.3243 131.779 40.1163 132.173 39.9777C132.579 39.8283 133.016 39.7537 133.485 39.7537ZM133.469 40.7137C132.808 40.7137 132.269 40.9057 131.853 41.2897C131.437 41.6737 131.229 42.2283 131.229 42.9537C131.229 43.6683 131.437 44.207 131.853 44.5697C132.269 44.9323 132.808 45.1137 133.469 45.1137C134.131 45.1137 134.669 44.9323 135.085 44.5697C135.501 44.207 135.709 43.6683 135.709 42.9537C135.709 42.2283 135.501 41.6737 135.085 41.2897C134.68 40.9057 134.141 40.7137 133.469 40.7137ZM135.037 44.4417H134.029L133.373 43.4017H133.133V44.4417H132.253V41.2417H133.565C133.939 41.2417 134.243 41.327 134.477 41.4977C134.723 41.6683 134.845 41.9403 134.845 42.3137C134.867 42.7723 134.675 43.0923 134.269 43.2737L135.037 44.4417ZM133.133 42.0097V42.6657H133.581C133.699 42.6657 133.795 42.6443 133.869 42.6017C133.955 42.5483 133.997 42.4577 133.997 42.3297C133.997 42.191 133.955 42.1057 133.869 42.0737C133.795 42.031 133.693 42.0097 133.565 42.0097H133.133Z" fill="#333333"/>
</svg>
