<svg width="28" height="30" viewBox="0 0 28 30" fill="none" xmlns="http://www.w3.org/2000/svg">
<path d="M18.1478 3.03677H9.85221C9.36047 3.03677 8.96183 3.44693 8.96183 3.9529V9.70854C8.96183 10.2145 9.36047 10.6247 9.85221 10.6247H18.1478C18.6395 10.6247 19.0382 10.2145 19.0382 9.70854V3.9529C19.0382 3.44693 18.6395 3.03677 18.1478 3.03677Z" fill="#FFCF00"/>
<path fill-rule="evenodd" clip-rule="evenodd" d="M9.96947 4.07354V9.5879H18.0305V4.07354H9.96947ZM7.9542 3.9529C7.9542 2.87434 8.80397 2 9.85221 2H18.1478C19.196 2 20.0458 2.87434 20.0458 3.9529V9.70854C20.0458 10.7871 19.196 11.6614 18.1478 11.6614H9.85221C8.80397 11.6614 7.9542 10.7871 7.9542 9.70854V3.9529Z" fill="#333333"/>
<path d="M19.5218 21.0577H8.47817C7.98642 21.0577 7.58779 21.4679 7.58779 21.9738V27.2545C7.58779 27.7604 7.98642 28.1706 8.47817 28.1706H19.5218C20.0136 28.1706 20.4122 27.7604 20.4122 27.2545V21.9738C20.4122 21.4679 20.0136 21.0577 19.5218 21.0577Z" fill="#FFCF00"/>
<path fill-rule="evenodd" clip-rule="evenodd" d="M8.47817 21.8871C8.43162 21.8871 8.39389 21.926 8.39389 21.9738V27.2545C8.39389 27.3023 8.43162 27.3412 8.47817 27.3412H19.5218C19.5684 27.3412 19.6061 27.3023 19.6061 27.2545V21.9738C19.6061 21.926 19.5684 21.8871 19.5218 21.8871H8.47817ZM6.78168 21.9738C6.78168 21.0098 7.54122 20.2283 8.47817 20.2283H19.5218C20.4588 20.2283 21.2183 21.0098 21.2183 21.9738V27.2545C21.2183 28.2185 20.4588 29 19.5218 29H8.47817C7.54122 29 6.78168 28.2185 6.78168 27.2545V21.9738Z" fill="#333333"/>
<path d="M20.4122 25.3254H7.58779C3.00763 25.3254 3.00763 21.5315 3.00763 21.5315V10.6234C3.00763 10.6234 3.00763 6.83198 7.58779 6.83198H20.4122C24.9924 6.83072 24.9924 10.6247 24.9924 10.6247V21.5315C24.9924 21.5315 24.9924 25.3254 20.4122 25.3254Z" fill="#FFCF00"/>
<path fill-rule="evenodd" clip-rule="evenodd" d="M23.5639 9.27491C23.1873 8.65102 22.3774 7.86821 20.4125 7.86875H7.58779C5.62258 7.86875 4.81258 8.65145 4.43598 9.27495C4.2279 9.61944 4.12027 9.97117 4.06588 10.2413C4.03903 10.3747 4.02626 10.4827 4.02026 10.5522C4.01728 10.5867 4.01603 10.6112 4.01552 10.6238L4.01527 10.6314V21.5235L4.01552 21.5312C4.01603 21.5438 4.01729 21.5683 4.02027 21.6029C4.02627 21.6725 4.03905 21.7806 4.06591 21.9141C4.12032 22.1845 4.22799 22.5366 4.43613 22.8815C4.81287 23.5056 5.62289 24.2887 7.58779 24.2887H20.4122C22.3771 24.2887 23.1871 23.5056 23.5639 22.8815C23.772 22.5366 23.8797 22.1845 23.9341 21.9141C23.961 21.7806 23.9737 21.6725 23.9797 21.6029C23.9827 21.5683 23.984 21.5438 23.9845 21.5312L23.9847 21.5235V10.6327L23.9845 10.625C23.984 10.6123 23.9827 10.5879 23.9797 10.5533C23.9737 10.4837 23.961 10.3756 23.9341 10.2421C23.8797 9.97166 23.772 9.61964 23.5639 9.27491ZM3.00763 21.5315H2V10.6234L3.00763 10.6234C2 10.6234 2 10.6221 2 10.6221L2 10.6207L2.00001 10.6176L2.00007 10.6104L2.00034 10.5918C2.00062 10.5774 2.00112 10.5594 2.00198 10.5379C2.00371 10.495 2.00693 10.4379 2.01289 10.3688C2.02479 10.2309 2.0478 10.0428 2.09251 9.82069C2.18125 9.37994 2.35989 8.7838 2.72433 8.18044C3.49277 6.90822 4.97284 5.79521 7.58779 5.79521H20.4119C23.027 5.79456 24.5074 6.90806 25.2758 8.18079C25.6402 8.78439 25.8188 9.38078 25.9075 9.8217C25.9522 10.0439 25.9752 10.2321 25.9871 10.37C25.9931 10.4392 25.9963 10.4962 25.998 10.5392C25.9989 10.5607 25.9994 10.5787 25.9997 10.593L25.9999 10.6117L26 10.6189L26 10.622L26 10.6234C26 10.6234 26 10.6247 24.9924 10.6247H26V21.5315H24.9924C26 21.5315 26 21.5328 26 21.5328L26 21.5342L26 21.5372L25.9999 21.5445L25.9997 21.5631C25.9994 21.5775 25.9989 21.5955 25.998 21.617C25.9963 21.66 25.9931 21.717 25.9871 21.7861C25.9752 21.924 25.9522 22.1123 25.9075 22.3345C25.8188 22.7754 25.6402 23.3718 25.2758 23.9755C24.5075 25.2483 23.0275 26.3622 20.4122 26.3622H7.58779C4.97253 26.3622 3.49247 25.2483 2.72417 23.9755C2.3598 23.3718 2.1812 22.7754 2.09249 22.3345C2.04778 22.1123 2.02478 21.924 2.01289 21.7861C2.00693 21.717 2.00371 21.66 2.00198 21.617C2.00112 21.5955 2.00062 21.5775 2.00034 21.5631L2.00007 21.5445L2.00001 21.5372L2 21.5342L2 21.5328C2 21.5328 2 21.5315 3.00763 21.5315Z" fill="#333333"/>
<path d="M11.7099 14.1811C11.7104 14.0259 11.6811 13.8721 11.6238 13.7285C11.5665 13.5849 11.4822 13.4543 11.3758 13.3443C11.2694 13.2342 11.143 13.1468 11.0037 13.087C10.8645 13.0273 10.7151 12.9964 10.5643 12.996C10.4135 12.9965 10.2643 13.0276 10.1252 13.0874C9.98609 13.1472 9.85979 13.2347 9.75352 13.3447C9.64725 13.4547 9.56309 13.5852 9.50584 13.7288C9.44859 13.8723 9.41937 14.026 9.41985 14.1811C9.41985 14.8346 9.93283 15.3662 10.5655 15.3662C10.7163 15.3657 10.8655 15.3346 11.0046 15.2748C11.1437 15.215 11.27 15.1276 11.3762 15.0175C11.4825 14.9075 11.5667 14.777 11.6239 14.6335C11.6812 14.4899 11.7104 14.3362 11.7099 14.1811ZM17.4357 12.996C17.2849 12.9964 17.1355 13.0273 16.9963 13.087C16.857 13.1468 16.7306 13.2342 16.6242 13.3443C16.5178 13.4543 16.4335 13.5849 16.3762 13.7285C16.3189 13.8721 16.2896 14.0259 16.2901 14.1811C16.2901 14.8346 16.8031 15.3662 17.4357 15.3662C17.5865 15.3657 17.7357 15.3346 17.8748 15.2748C18.0139 15.215 18.1402 15.1276 18.2465 15.0175C18.3527 14.9075 18.4369 14.777 18.4942 14.6335C18.5514 14.4899 18.5806 14.3362 18.5802 14.1811C18.5806 14.0259 18.5514 13.8721 18.494 13.7285C18.4367 13.5849 18.3524 13.4543 18.246 13.3443C18.1396 13.2342 18.0132 13.1468 17.874 13.087C17.7347 13.0273 17.5866 12.9964 17.4357 12.996ZM17.7936 17.8469C17.7259 17.805 17.6503 17.7785 17.5719 17.7692C17.4934 17.7599 17.414 17.768 17.3388 17.793C17.2637 17.818 17.1946 17.8594 17.1364 17.9142C17.0781 17.969 17.0319 18.036 17.0009 18.1108C16.9948 18.1208 16.4379 19.1664 13.9927 19.1664C11.6073 19.1664 11.0162 18.1698 10.9857 18.1108C10.9583 18.0346 10.9153 17.9654 10.8594 17.908C10.8035 17.8506 10.7362 17.8064 10.6621 17.7784C10.588 17.7504 10.5088 17.7394 10.4302 17.746C10.3515 17.7526 10.2751 17.7767 10.2064 17.8167C10.0609 17.9194 9.95496 18.0713 9.90699 18.246C9.85902 18.4207 9.87205 18.6072 9.94382 18.7731C10.0208 18.9578 10.7866 20.5902 13.9927 20.5902C17.1988 20.5902 17.9621 18.9578 18.0391 18.7731C18.1073 18.6129 18.1202 18.4335 18.0755 18.2647C18.0308 18.096 17.9313 17.9493 17.7936 17.8469Z" fill="#333333"/>
</svg>
