<svg width="24" height="24" viewBox="0 0 24 24" fill="none" xmlns="http://www.w3.org/2000/svg">
<path d="M4 7.2002V16.8002C4 17.9203 4 18.4801 4.21799 18.9079C4.40973 19.2842 4.71547 19.5905 5.0918 19.7822C5.5192 20 6.07899 20 7.19691 20H16.8031C17.921 20 18.48 20 18.9074 19.7822C19.2837 19.5905 19.5905 19.2842 19.7822 18.9079C20 18.4805 20 17.9215 20 16.8036V7.19691C20 6.07899 20 5.5192 19.7822 5.0918C19.5905 4.71547 19.2837 4.40973 18.9074 4.21799C18.4796 4 17.9203 4 16.8002 4H7.2002C6.08009 4 5.51962 4 5.0918 4.21799C4.71547 4.40973 4.40973 4.71547 4.21799 5.0918C4 5.51962 4 6.08009 4 7.2002Z" stroke="#333333" stroke-width="2" stroke-linecap="round" stroke-linejoin="round"/>
<path d="M9 10.2001V13.8001C9 14.2201 9 14.43 9.08175 14.5905C9.15365 14.7316 9.2683 14.8464 9.40942 14.9183C9.5697 15 9.77962 15 10.1988 15H13.8012C14.2204 15 14.43 15 14.5903 14.9183C14.7314 14.8464 14.8464 14.7316 14.9183 14.5905C15 14.4302 15 14.2206 15 13.8013V10.1988C15 9.77962 15 9.5697 14.9183 9.40942C14.8464 9.2683 14.7314 9.15365 14.5903 9.08175C14.4298 9 14.2201 9 13.8001 9H10.2001C9.78003 9 9.56986 9 9.40942 9.08175C9.2683 9.15365 9.15365 9.2683 9.08175 9.40942C9 9.56986 9 9.78003 9 10.2001Z" fill="#333333" stroke="#333333" stroke-width="2" stroke-linecap="round" stroke-linejoin="round"/>
</svg>
